<svg width="140" height="71" viewBox="0 0 140 71" fill="none" xmlns="http://www.w3.org/2000/svg">
<path d="M3 32.418C10.9 23.7807 18.3477 14.8121 28.9241 9.44724C32.146 7.81297 42.8145 1.70439 46.5624 3.78658C56.7816 9.46403 41.0971 36.3732 38.7687 42.7548C32.7818 59.1635 34.7089 71.9775 55.5866 66.8741C78.1074 61.369 105.443 48.1929 123.924 33.9767C128.814 30.2158 141.917 25.0345 129.667 25.0345C125.269 25.0345 106.754 24.6417 121.053 26.4291C122.327 26.5884 136.722 26.1699 136.722 26.8393C136.722 28.4598 130.239 34.5839 129.257 36.766C127.555 40.548 125.565 42.9194 125.565 47.1849" stroke="rgb(202 12 71)"  stroke-width="5" stroke-linecap="round"/>
</svg>
