<svg width="24" height="24" viewBox="0 0 24 24" fill="none" xmlns="http://www.w3.org/2000/svg">
<path d="M5 12C5 11.305 5.10128 10.6337 5.28988 10H3.22302C3.07706 10.6432 3 11.3126 3 12C3 16.3409 6.0732 19.964 10.1626 20.8123L9.39103 18.4976C6.81719 17.4632 5 14.9438 5 12Z" fill="#E91F64"/>
<path d="M12 5C13.3197 5 14.554 5.36518 15.6076 6H18.7083C17.0604 4.15875 14.6655 3 12 3C9.3345 3 6.93964 4.15875 5.29168 6H8.39241C9.44596 5.36518 10.6803 5 12 5Z" fill="#E91F64"/>
<path d="M19 12C19 14.9438 17.1828 17.4632 14.609 18.4976L13.8374 20.8123C17.9268 19.964 21 16.3409 21 12C21 11.3126 20.9229 10.6432 20.777 10H18.7101C18.8987 10.6337 19 11.305 19 12Z" fill="#E91F64"/>
<path d="M4 7C3.44772 7 3 7.44772 3 8C3 8.55228 3.44772 9 4 9H7.27924L12 23.1623L16.7208 9H20C20.5523 9 21 8.55228 21 8C21 7.44772 20.5523 7 20 7H15.2792L12 16.8377L8.72076 7H4Z" fill="#E91F64"/>
</svg>
